<svg width="1362" height="233" viewBox="0 0 1362 233" fill="none" xmlns="http://www.w3.org/2000/svg">
<rect y="0.30127" width="1362" height="228.967" rx="20" fill="#421B95"/>
<rect y="0.30127" width="1362" height="228.967" rx="20" fill="#421B95"/>
<path d="M208.361 48.1382L209.062 49.5356L210.464 50.3956L209.062 51.1481L208.361 52.653L207.56 51.1481L206.259 50.3956L207.56 49.5356L208.361 48.1382Z" fill="#FEA7AF"/>
<path d="M288.06 148.54L288.561 149.507L289.462 150.044L288.561 150.582L288.06 151.549L287.56 150.582L286.659 150.044L287.56 149.507L288.06 148.54Z" fill="#FEA7AF"/>
<path d="M289.462 62.6484L289.963 63.6159L290.764 64.1534L289.963 64.5834L289.462 65.5508L288.962 64.5834L288.061 64.1534L288.962 63.6159L289.462 62.6484Z" fill="#FEA7AF"/>
<path d="M88.912 190.247L89.4126 191.215L90.3138 191.752L89.4126 192.182L88.912 193.149L88.4114 192.182L87.5103 191.752L88.4114 191.215L88.912 190.247Z" fill="#FEA7AF"/>
<path opacity="0.3" d="M53.4677 19.2212L53.9683 20.1887L54.8694 20.7261L53.9683 21.2636L53.4677 22.2311L52.967 21.2636L52.0659 20.7261L52.967 20.1887L53.4677 19.2212Z" fill="white"/>
<path opacity="0.3" d="M1.40224 219.486L1.90287 220.454L2.80399 220.991L1.90287 221.421L1.40224 222.389L0.901614 221.421L0.000488281 220.991L0.901614 220.454L1.40224 219.486Z" fill="white"/>
<path opacity="0.3" d="M8.01015 38.8931L8.51078 39.8605L9.41191 40.398L8.51078 40.828L8.01015 41.7954L7.50952 40.828L6.6084 40.398L7.50952 39.8605L8.01015 38.8931Z" fill="white"/>
<path opacity="0.3" d="M119.45 80.1709L119.951 81.0309L120.852 81.5683L119.951 82.1058L119.45 83.0733L118.949 82.1058L118.048 81.5683L118.949 81.0309L119.45 80.1709Z" fill="white"/>
<path opacity="0.3" d="M165.208 103.928L166.109 105.755L167.911 106.83L166.109 107.905L165.208 109.733L164.207 107.905L162.404 106.83L164.207 105.755L165.208 103.928Z" fill="#FEA7AF"/>
<path opacity="0.3" d="M18.6233 0.301758L19.6246 2.23669L21.4268 3.31165L19.6246 4.2791L18.6233 6.21404L17.7222 4.2791L15.9199 3.31165L17.7222 2.23669L18.6233 0.301758Z" fill="white"/>
<path opacity="0.3" d="M404.306 81.5688L405.208 83.5038L407.01 84.5787L405.208 85.5462L404.306 87.4811L403.305 85.5462L401.503 84.5787L403.305 83.5038L404.306 81.5688Z" fill="white"/>
<path opacity="0.3" d="M396.296 223.356L397.297 225.291L399.099 226.366L397.297 227.334L396.296 229.269L395.395 227.334L393.592 226.366L395.395 225.291L396.296 223.356Z" fill="white"/>
<path opacity="0.3" d="M23.93 187.345L24.4307 188.205L25.2317 188.743L24.4307 189.173L23.93 190.14L23.5295 189.173L22.6284 188.743L23.5295 188.205L23.93 187.345Z" fill="white"/>
<path opacity="0.3" d="M219.876 176.272L220.376 177.132L221.177 177.669L220.376 178.207L219.876 179.067L219.475 178.207L218.574 177.669L219.475 177.132L219.876 176.272Z" fill="#FEA7AF"/>
<path opacity="0.3" d="M230.689 217.444L231.09 218.304L231.991 218.841L231.09 219.271L230.689 220.239L230.189 219.271L229.388 218.841L230.189 218.304L230.689 217.444Z" fill="#FEA7AF"/>
<path opacity="0.3" d="M330.314 64.1538L330.715 65.1213L331.616 65.5513L330.715 66.0887L330.314 66.9487L329.814 66.0887L329.013 65.5513L329.814 65.1213L330.314 64.1538Z" fill="#FEA7AF"/>
<path opacity="0.3" d="M382.879 150.152L383.28 151.012L384.181 151.549L383.28 152.087L382.879 152.947L382.379 152.087L381.578 151.549L382.379 151.012L382.879 150.152Z" fill="white"/>
<path opacity="0.3" d="M350.739 29.3257L351.24 30.1857L352.041 30.7231L351.24 31.1531L350.739 32.1206L350.339 31.1531L349.438 30.7231L350.339 30.1857L350.739 29.3257Z" fill="white"/>
<path opacity="0.3" d="M242.704 94.4683L243.605 96.0807L245.107 96.9407L243.605 97.9081L242.704 99.5206L241.903 97.9081L240.401 96.9407L241.903 96.0807L242.704 94.4683Z" fill="#FEA7AF"/>
<path d="M154.094 184.228L155.195 186.377L157.298 187.667L155.195 188.85L154.094 191.107L152.992 188.85L150.89 187.667L152.992 186.377L154.094 184.228Z" fill="white"/>
<path d="M334.919 185.195L335.32 186.055L336.021 186.485L335.32 186.915L334.919 187.667L334.519 186.915L333.718 186.485L334.519 186.055L334.919 185.195Z" fill="white"/>
<path d="M355.846 98.3384L356.247 99.0908L357.047 99.5208L356.247 99.9508L355.846 100.703L355.445 99.9508L354.745 99.5208L355.445 99.0908L355.846 98.3384Z" fill="white"/>
<path opacity="0.3" d="M72.7916 100.273L73.4925 101.778L74.7941 102.53L73.4925 103.283L72.7916 104.68L71.9906 103.283L70.689 102.53L71.9906 101.778L72.7916 100.273Z" fill="#FEA7AF"/>
<path opacity="0.3" d="M289.462 188.527L289.963 189.602L290.864 190.14L289.963 190.677L289.462 191.752L288.862 190.677L287.96 190.14L288.862 189.602L289.462 188.527Z" fill="#FEA7AF"/>
<path opacity="0.3" d="M313.693 219.702L314.193 220.777L315.195 221.314L314.193 221.852L313.693 222.927L313.192 221.852L312.191 221.314L313.192 220.777L313.693 219.702Z" fill="#FEA7AF"/>
<path opacity="0.3" d="M310.79 105.218L311.291 106.293L312.192 106.831L311.291 107.368L310.79 108.443L310.289 107.368L309.288 106.831L310.289 106.293L310.79 105.218Z" fill="#FEA7AF"/>
<path opacity="0.3" d="M230.689 128.975L231.19 129.943L232.091 130.48L231.19 131.125L230.689 132.092L230.188 131.125L229.187 130.48L230.188 129.943L230.689 128.975Z" fill="#FEA7AF"/>
<path opacity="0.3" d="M440.551 142.734L441.052 143.702L442.053 144.347L441.052 144.884L440.551 145.852L440.051 144.884L439.049 144.347L440.051 143.702L440.551 142.734Z" fill="#FEA7AF"/>
<path d="M607.602 51.0479L608.303 52.4453L609.705 53.3053L608.303 54.0577L607.602 55.5627L606.801 54.0577L605.5 53.3053L606.801 52.4453L607.602 51.0479Z" fill="#FEA7AF"/>
<path d="M687.301 151.449L687.802 152.417L688.703 152.954L687.802 153.492L687.301 154.459L686.801 153.492L685.899 152.954L686.801 152.417L687.301 151.449Z" fill="#FEA7AF"/>
<path d="M688.704 65.5581L689.204 66.5256L690.005 67.063L689.204 67.493L688.704 68.4605L688.203 67.493L687.302 67.063L688.203 66.5256L688.704 65.5581Z" fill="#FEA7AF"/>
<path d="M488.153 193.157L488.653 194.124L489.554 194.662L488.653 195.092L488.153 196.059L487.652 195.092L486.751 194.662L487.652 194.124L488.153 193.157Z" fill="#FEA7AF"/>
<path opacity="0.3" d="M452.708 22.1309L453.209 23.0983L454.11 23.6358L453.209 24.1733L452.708 25.1408L452.208 24.1733L451.307 23.6358L452.208 23.0983L452.708 22.1309Z" fill="white"/>
<path opacity="0.3" d="M400.643 222.396L401.144 223.363L402.045 223.901L401.144 224.331L400.643 225.298L400.142 224.331L399.241 223.901L400.142 223.363L400.643 222.396Z" fill="white"/>
<path opacity="0.3" d="M407.251 41.8027L407.751 42.7702L408.653 43.3077L407.751 43.7377L407.251 44.7051L406.75 43.7377L405.849 43.3077L406.75 42.7702L407.251 41.8027Z" fill="white"/>
<path opacity="0.3" d="M518.69 83.0806L519.191 83.9405L520.092 84.478L519.191 85.0155L518.69 85.983L518.19 85.0155L517.289 84.478L518.19 83.9405L518.69 83.0806Z" fill="white"/>
<path opacity="0.3" d="M564.448 106.837L565.349 108.665L567.151 109.74L565.349 110.815L564.448 112.642L563.447 110.815L561.645 109.74L563.447 108.665L564.448 106.837Z" fill="#FEA7AF"/>
<path opacity="0.3" d="M417.864 3.21143L418.865 5.14636L420.668 6.22132L418.865 7.18877L417.864 9.1237L416.963 7.18877L415.161 6.22132L416.963 5.14636L417.864 3.21143Z" fill="white"/>
<path opacity="0.3" d="M803.547 84.4785L804.448 86.4134L806.25 87.4884L804.448 88.4559L803.547 90.3908L802.545 88.4559L800.743 87.4884L802.545 86.4134L803.547 84.4785Z" fill="white"/>
<path opacity="0.3" d="M795.536 226.266L796.538 228.201L798.34 229.276L796.538 230.243L795.536 232.178L794.635 230.243L792.833 229.276L794.635 228.201L795.536 226.266Z" fill="white"/>
<path opacity="0.3" d="M423.171 190.254L423.671 191.114L424.472 191.652L423.671 192.082L423.171 193.049L422.77 192.082L421.869 191.652L422.77 191.114L423.171 190.254Z" fill="white"/>
<path opacity="0.3" d="M619.117 179.182L619.617 180.042L620.418 180.579L619.617 181.117L619.117 181.977L618.716 181.117L617.815 180.579L618.716 180.042L619.117 179.182Z" fill="#FEA7AF"/>
<path opacity="0.3" d="M629.93 220.354L630.33 221.214L631.231 221.751L630.33 222.181L629.93 223.148L629.429 222.181L628.628 221.751L629.429 221.214L629.93 220.354Z" fill="#FEA7AF"/>
<path opacity="0.3" d="M729.555 67.0635L729.955 68.0309L730.856 68.4609L729.955 68.9984L729.555 69.8584L729.054 68.9984L728.253 68.4609L729.054 68.0309L729.555 67.0635Z" fill="#FEA7AF"/>
<path opacity="0.3" d="M782.12 153.062L782.521 153.921L783.422 154.459L782.521 154.996L782.12 155.856L781.619 154.996L780.818 154.459L781.619 153.921L782.12 153.062Z" fill="white"/>
<path opacity="0.3" d="M749.98 32.2354L750.481 33.0953L751.282 33.6328L750.481 34.0628L749.98 35.0302L749.58 34.0628L748.679 33.6328L749.58 33.0953L749.98 32.2354Z" fill="white"/>
<path opacity="0.3" d="M641.945 97.3779L642.846 98.9904L644.348 99.8503L642.846 100.818L641.945 102.43L641.144 100.818L639.642 99.8503L641.144 98.9904L641.945 97.3779Z" fill="#FEA7AF"/>
<path d="M553.334 187.137L554.436 189.287L556.538 190.577L554.436 191.76L553.334 194.017L552.233 191.76L550.13 190.577L552.233 189.287L553.334 187.137Z" fill="white"/>
<path d="M734.16 188.104L734.561 188.964L735.261 189.394L734.561 189.824L734.16 190.577L733.759 189.824L732.958 189.394L733.759 188.964L734.16 188.104Z" fill="white"/>
<path d="M755.087 101.248L755.487 102.001L756.288 102.431L755.487 102.86L755.087 103.613L754.686 102.86L753.985 102.431L754.686 102.001L755.087 101.248Z" fill="white"/>
<path opacity="0.3" d="M472.032 103.183L472.733 104.688L474.035 105.44L472.733 106.193L472.032 107.59L471.231 106.193L469.93 105.44L471.231 104.688L472.032 103.183Z" fill="#FEA7AF"/>
<path opacity="0.3" d="M688.703 191.437L689.204 192.512L690.105 193.049L689.204 193.587L688.703 194.662L688.102 193.587L687.201 193.049L688.102 192.512L688.703 191.437Z" fill="#FEA7AF"/>
<path opacity="0.3" d="M712.934 222.611L713.434 223.686L714.435 224.224L713.434 224.761L712.934 225.836L712.433 224.761L711.432 224.224L712.433 223.686L712.934 222.611Z" fill="#FEA7AF"/>
<path opacity="0.3" d="M710.03 108.128L710.531 109.203L711.432 109.741L710.531 110.278L710.03 111.353L709.53 110.278L708.528 109.741L709.53 109.203L710.03 108.128Z" fill="#FEA7AF"/>
<path opacity="0.3" d="M629.93 131.885L630.43 132.852L631.331 133.39L630.43 134.035L629.93 135.002L629.429 134.035L628.428 133.39L629.429 132.852L629.93 131.885Z" fill="#FEA7AF"/>
<path opacity="0.3" d="M839.792 145.645L840.293 146.612L841.294 147.257L840.293 147.794L839.792 148.762L839.291 147.794L838.29 147.257L839.291 146.612L839.792 145.645Z" fill="#FEA7AF"/>
<path d="M1085.5 51.0479L1086.2 52.4453L1087.6 53.3053L1086.2 54.0577L1085.5 55.5627L1084.69 54.0577L1083.39 53.3053L1084.69 52.4453L1085.5 51.0479Z" fill="#FEA7AF"/>
<path d="M1165.2 151.449L1165.7 152.417L1166.6 152.954L1165.7 153.492L1165.2 154.459L1164.69 153.492L1163.79 152.954L1164.69 152.417L1165.2 151.449Z" fill="#FEA7AF"/>
<path d="M1166.6 65.5581L1167.1 66.5256L1167.9 67.063L1167.1 67.493L1166.6 68.4605L1166.1 67.493L1165.19 67.063L1166.1 66.5256L1166.6 65.5581Z" fill="#FEA7AF"/>
<path d="M966.047 193.157L966.547 194.124L967.449 194.662L966.547 195.092L966.047 196.059L965.546 195.092L964.645 194.662L965.546 194.124L966.047 193.157Z" fill="#FEA7AF"/>
<path opacity="0.3" d="M930.602 22.1309L931.103 23.0983L932.004 23.6358L931.103 24.1733L930.602 25.1408L930.101 24.1733L929.2 23.6358L930.101 23.0983L930.602 22.1309Z" fill="white"/>
<path opacity="0.3" d="M878.537 222.396L879.037 223.363L879.938 223.901L879.037 224.331L878.537 225.298L878.036 224.331L877.135 223.901L878.036 223.363L878.537 222.396Z" fill="white"/>
<path opacity="0.3" d="M885.144 41.8027L885.645 42.7702L886.546 43.3077L885.645 43.7377L885.144 44.7051L884.644 43.7377L883.743 43.3077L884.644 42.7702L885.144 41.8027Z" fill="white"/>
<path opacity="0.3" d="M996.584 83.0806L997.085 83.9405L997.986 84.478L997.085 85.0155L996.584 85.983L996.084 85.0155L995.183 84.478L996.084 83.9405L996.584 83.0806Z" fill="white"/>
<path opacity="0.3" d="M1042.34 106.837L1043.24 108.665L1045.05 109.74L1043.24 110.815L1042.34 112.642L1041.34 110.815L1039.54 109.74L1041.34 108.665L1042.34 106.837Z" fill="#FEA7AF"/>
<path opacity="0.3" d="M895.758 3.21143L896.759 5.14636L898.561 6.22132L896.759 7.18877L895.758 9.1237L894.856 7.18877L893.054 6.22132L894.856 5.14636L895.758 3.21143Z" fill="white"/>
<path opacity="0.3" d="M1281.44 84.4785L1282.34 86.4134L1284.14 87.4884L1282.34 88.4559L1281.44 90.3908L1280.44 88.4559L1278.64 87.4884L1280.44 86.4134L1281.44 84.4785Z" fill="white"/>
<path opacity="0.3" d="M1273.43 226.266L1274.43 228.201L1276.23 229.276L1274.43 230.243L1273.43 232.178L1272.53 230.243L1270.73 229.276L1272.53 228.201L1273.43 226.266Z" fill="white"/>
<path opacity="0.3" d="M901.064 190.254L901.565 191.114L902.366 191.652L901.565 192.082L901.064 193.049L900.664 192.082L899.763 191.652L900.664 191.114L901.064 190.254Z" fill="white"/>
<path opacity="0.3" d="M1097.01 179.182L1097.51 180.042L1098.31 180.579L1097.51 181.117L1097.01 181.977L1096.61 181.117L1095.71 180.579L1096.61 180.042L1097.01 179.182Z" fill="#FEA7AF"/>
<path opacity="0.3" d="M1107.82 220.354L1108.22 221.214L1109.12 221.751L1108.22 222.181L1107.82 223.148L1107.32 222.181L1106.52 221.751L1107.32 221.214L1107.82 220.354Z" fill="#FEA7AF"/>
<path opacity="0.3" d="M1207.45 67.0635L1207.85 68.0309L1208.75 68.4609L1207.85 68.9984L1207.45 69.8584L1206.95 68.9984L1206.15 68.4609L1206.95 68.0309L1207.45 67.0635Z" fill="#FEA7AF"/>
<path opacity="0.3" d="M1260.01 153.062L1260.41 153.921L1261.32 154.459L1260.41 154.996L1260.01 155.856L1259.51 154.996L1258.71 154.459L1259.51 153.921L1260.01 153.062Z" fill="white"/>
<path opacity="0.3" d="M1227.87 32.2354L1228.37 33.0953L1229.18 33.6328L1228.37 34.0628L1227.87 35.0302L1227.47 34.0628L1226.57 33.6328L1227.47 33.0953L1227.87 32.2354Z" fill="white"/>
<path opacity="0.3" d="M1119.84 97.3779L1120.74 98.9904L1122.24 99.8503L1120.74 100.818L1119.84 102.43L1119.04 100.818L1117.54 99.8503L1119.04 98.9904L1119.84 97.3779Z" fill="#FEA7AF"/>
<path d="M1031.23 187.137L1032.33 189.287L1034.43 190.577L1032.33 191.76L1031.23 194.017L1030.13 191.76L1028.02 190.577L1030.13 189.287L1031.23 187.137Z" fill="white"/>
<path d="M1212.05 188.104L1212.45 188.964L1213.15 189.394L1212.45 189.824L1212.05 190.577L1211.65 189.824L1210.85 189.394L1211.65 188.964L1212.05 188.104Z" fill="white"/>
<path d="M1232.98 101.248L1233.38 102.001L1234.18 102.431L1233.38 102.86L1232.98 103.613L1232.58 102.86L1231.88 102.431L1232.58 102.001L1232.98 101.248Z" fill="white"/>
<path opacity="0.3" d="M949.926 103.183L950.627 104.688L951.928 105.44L950.627 106.193L949.926 107.59L949.125 106.193L947.823 105.44L949.125 104.688L949.926 103.183Z" fill="#FEA7AF"/>
<path opacity="0.3" d="M1166.6 191.437L1167.1 192.512L1168 193.049L1167.1 193.587L1166.6 194.662L1166 193.587L1165.09 193.049L1166 192.512L1166.6 191.437Z" fill="#FEA7AF"/>
<path opacity="0.3" d="M1190.83 222.611L1191.33 223.686L1192.33 224.224L1191.33 224.761L1190.83 225.836L1190.33 224.761L1189.33 224.224L1190.33 223.686L1190.83 222.611Z" fill="#FEA7AF"/>
<path opacity="0.3" d="M1187.92 108.128L1188.42 109.203L1189.33 109.741L1188.42 110.278L1187.92 111.353L1187.42 110.278L1186.42 109.741L1187.42 109.203L1187.92 108.128Z" fill="#FEA7AF"/>
<path opacity="0.3" d="M1107.82 131.885L1108.32 132.852L1109.22 133.39L1108.32 134.035L1107.82 135.002L1107.32 134.035L1106.32 133.39L1107.32 132.852L1107.82 131.885Z" fill="#FEA7AF"/>
<path opacity="0.3" d="M1317.69 145.645L1318.19 146.612L1319.19 147.257L1318.19 147.794L1317.69 148.762L1317.18 147.794L1316.18 147.257L1317.18 146.612L1317.69 145.645Z" fill="#FEA7AF"/>
<path d="M860.487 49.2588L861.188 50.6102L862.59 51.4418L861.188 52.1694L860.487 53.6247L859.686 52.1694L858.385 51.4418L859.686 50.6102L860.487 49.2588Z" fill="#FEA7AF"/>
<path d="M940.186 146.35L940.687 147.285L941.588 147.805L940.687 148.325L940.186 149.26L939.686 148.325L938.785 147.805L939.686 147.285L940.186 146.35Z" fill="#FEA7AF"/>
<path d="M941.589 63.2905L942.089 64.2261L942.89 64.7458L942.089 65.1616L941.589 66.0972L941.088 65.1616L940.187 64.7458L941.088 64.2261L941.589 63.2905Z" fill="#FEA7AF"/>
<path d="M741.038 186.682L741.539 187.617L742.44 188.137L741.539 188.553L741.038 189.488L740.537 188.553L739.636 188.137L740.537 187.617L741.038 186.682Z" fill="#FEA7AF"/>
<path opacity="0.3" d="M705.594 21.2954L706.095 22.231L706.996 22.7507L706.095 23.2705L705.594 24.2061L705.094 23.2705L704.192 22.7507L705.094 22.231L705.594 21.2954Z" fill="white"/>
<path opacity="0.3" d="M653.528 214.957L654.029 215.893L654.93 216.412L654.029 216.828L653.528 217.764L653.028 216.828L652.126 216.412L653.028 215.893L653.528 214.957Z" fill="white"/>
<path opacity="0.3" d="M660.136 40.3188L660.637 41.2544L661.538 41.7742L660.637 42.19L660.136 43.1255L659.636 42.19L658.734 41.7742L659.636 41.2544L660.136 40.3188Z" fill="white"/>
<path opacity="0.3" d="M771.576 80.2354L772.077 81.067L772.978 81.5867L772.077 82.1065L771.576 83.042L771.075 82.1065L770.174 81.5867L771.075 81.067L771.576 80.2354Z" fill="white"/>
<path opacity="0.3" d="M817.334 103.209L818.235 104.976L820.037 106.016L818.235 107.055L817.334 108.822L816.333 107.055L814.53 106.016L816.333 104.976L817.334 103.209Z" fill="#FEA7AF"/>
<path opacity="0.3" d="M670.749 3L671.751 4.87113L673.553 5.91064L671.751 6.84619L670.749 8.71732L669.848 6.84619L668.046 5.91064L669.848 4.87113L670.749 3Z" fill="white"/>
<path opacity="0.3" d="M1056.43 81.5874L1057.33 83.4585L1059.14 84.498L1057.33 85.4336L1056.43 87.3047L1055.43 85.4336L1053.63 84.498L1055.43 83.4585L1056.43 81.5874Z" fill="white"/>
<path opacity="0.3" d="M1048.42 218.699L1049.42 220.57L1051.23 221.61L1049.42 222.545L1048.42 224.417L1047.52 222.545L1045.72 221.61L1047.52 220.57L1048.42 218.699Z" fill="white"/>
<path opacity="0.3" d="M676.056 183.875L676.557 184.707L677.358 185.226L676.557 185.642L676.056 186.578L675.656 185.642L674.754 185.226L675.656 184.707L676.056 183.875Z" fill="white"/>
<path opacity="0.3" d="M872.002 173.167L872.502 173.999L873.303 174.519L872.502 175.039L872.002 175.87L871.601 175.039L870.7 174.519L871.601 173.999L872.002 173.167Z" fill="#FEA7AF"/>
<path opacity="0.3" d="M882.815 212.982L883.215 213.814L884.116 214.333L883.215 214.749L882.815 215.685L882.314 214.749L881.513 214.333L882.314 213.814L882.815 212.982Z" fill="#FEA7AF"/>
<path opacity="0.3" d="M982.44 64.7466L982.841 65.6822L983.742 66.0979L982.841 66.6177L982.44 67.4493L981.94 66.6177L981.139 66.0979L981.94 65.6822L982.44 64.7466Z" fill="#FEA7AF"/>
<path opacity="0.3" d="M1035.01 147.909L1035.41 148.74L1036.31 149.26L1035.41 149.78L1035.01 150.611L1034.5 149.78L1033.7 149.26L1034.5 148.74L1035.01 147.909Z" fill="white"/>
<path opacity="0.3" d="M1002.87 31.0669L1003.37 31.8985L1004.17 32.4183L1003.37 32.8341L1002.87 33.7696L1002.47 32.8341L1001.56 32.4183L1002.47 31.8985L1002.87 31.0669Z" fill="white"/>
<path opacity="0.3" d="M894.83 94.0615L895.731 95.6208L897.233 96.4524L895.731 97.388L894.83 98.9472L894.029 97.388L892.527 96.4524L894.029 95.6208L894.83 94.0615Z" fill="#FEA7AF"/>
<path d="M806.22 180.861L807.321 182.94L809.424 184.187L807.321 185.331L806.22 187.514L805.118 185.331L803.016 184.187L805.118 182.94L806.22 180.861Z" fill="white"/>
<path d="M987.045 181.796L987.446 182.628L988.147 183.043L987.446 183.459L987.045 184.187L986.645 183.459L985.844 183.043L986.645 182.628L987.045 181.796Z" fill="white"/>
<path d="M1007.97 97.8032L1008.37 98.5309L1009.17 98.9467L1008.37 99.3625L1007.97 100.09L1007.57 99.3625L1006.87 98.9467L1007.57 98.5309L1007.97 97.8032Z" fill="white"/>
<path opacity="0.3" d="M724.918 99.6748L725.618 101.13L726.92 101.858L725.618 102.585L724.918 103.937L724.117 102.585L722.815 101.858L724.117 101.13L724.918 99.6748Z" fill="#FEA7AF"/>
<path opacity="0.3" d="M941.588 185.019L942.089 186.058L942.99 186.578L942.089 187.098L941.588 188.137L940.988 187.098L940.086 186.578L940.988 186.058L941.588 185.019Z" fill="#FEA7AF"/>
<path opacity="0.3" d="M965.819 215.165L966.319 216.205L967.321 216.724L966.319 217.244L965.819 218.284L965.318 217.244L964.317 216.724L965.318 216.205L965.819 215.165Z" fill="#FEA7AF"/>
<path opacity="0.3" d="M962.916 104.457L963.417 105.497L964.318 106.016L963.417 106.536L962.916 107.576L962.415 106.536L961.414 106.016L962.415 105.497L962.916 104.457Z" fill="#FEA7AF"/>
<path opacity="0.3" d="M882.815 127.43L883.316 128.366L884.217 128.885L883.316 129.509L882.815 130.445L882.315 129.509L881.313 128.885L882.315 128.366L882.815 127.43Z" fill="#FEA7AF"/>
<path opacity="0.3" d="M1092.68 140.735L1093.18 141.671L1094.18 142.295L1093.18 142.814L1092.68 143.75L1092.18 142.814L1091.18 142.295L1092.18 141.671L1092.68 140.735Z" fill="#FEA7AF"/>
<path d="M663.357 49.2588L664.057 50.6102L665.459 51.4418L664.057 52.1694L663.357 53.6247L662.556 52.1694L661.254 51.4418L662.556 50.6102L663.357 49.2588Z" fill="#FEA7AF"/>
<path d="M743.056 146.35L743.557 147.285L744.458 147.805L743.557 148.325L743.056 149.26L742.555 148.325L741.654 147.805L742.555 147.285L743.056 146.35Z" fill="#FEA7AF"/>
<path d="M744.457 63.2905L744.958 64.2261L745.759 64.7458L744.958 65.1616L744.457 66.0972L743.957 65.1616L743.056 64.7458L743.957 64.2261L744.457 63.2905Z" fill="#FEA7AF"/>
<path d="M543.908 186.682L544.408 187.617L545.309 188.137L544.408 188.553L543.908 189.488L543.407 188.553L542.506 188.137L543.407 187.617L543.908 186.682Z" fill="#FEA7AF"/>
<path opacity="0.3" d="M508.463 21.2954L508.964 22.231L509.865 22.7507L508.964 23.2705L508.463 24.2061L507.963 23.2705L507.062 22.7507L507.963 22.231L508.463 21.2954Z" fill="white"/>
<path opacity="0.3" d="M456.398 214.957L456.898 215.893L457.8 216.412L456.898 216.828L456.398 217.764L455.897 216.828L454.996 216.412L455.897 215.893L456.398 214.957Z" fill="white"/>
<path opacity="0.3" d="M463.006 40.3188L463.506 41.2544L464.408 41.7742L463.506 42.19L463.006 43.1255L462.505 42.19L461.604 41.7742L462.505 41.2544L463.006 40.3188Z" fill="white"/>
<path opacity="0.3" d="M574.446 80.2354L574.946 81.067L575.847 81.5867L574.946 82.1065L574.446 83.042L573.945 82.1065L573.044 81.5867L573.945 81.067L574.446 80.2354Z" fill="white"/>
<path opacity="0.3" d="M620.203 103.209L621.104 104.976L622.906 106.016L621.104 107.055L620.203 108.822L619.202 107.055L617.399 106.016L619.202 104.976L620.203 103.209Z" fill="#FEA7AF"/>
<path opacity="0.3" d="M473.619 3L474.62 4.87113L476.422 5.91064L474.62 6.84619L473.619 8.71732L472.718 6.84619L470.916 5.91064L472.718 4.87113L473.619 3Z" fill="white"/>
<path opacity="0.3" d="M859.302 81.5874L860.203 83.4585L862.005 84.498L860.203 85.4336L859.302 87.3047L858.301 85.4336L856.499 84.498L858.301 83.4585L859.302 81.5874Z" fill="white"/>
<path opacity="0.3" d="M851.291 218.699L852.293 220.57L854.095 221.61L852.293 222.545L851.291 224.417L850.39 222.545L848.588 221.61L850.39 220.57L851.291 218.699Z" fill="white"/>
<path opacity="0.3" d="M478.926 183.875L479.426 184.707L480.227 185.226L479.426 185.642L478.926 186.578L478.525 185.642L477.624 185.226L478.525 184.707L478.926 183.875Z" fill="white"/>
<path opacity="0.3" d="M674.871 173.167L675.372 173.999L676.173 174.519L675.372 175.039L674.871 175.87L674.471 175.039L673.57 174.519L674.471 173.999L674.871 173.167Z" fill="#FEA7AF"/>
<path opacity="0.3" d="M685.685 212.982L686.085 213.814L686.987 214.333L686.085 214.749L685.685 215.685L685.184 214.749L684.383 214.333L685.184 213.814L685.685 212.982Z" fill="#FEA7AF"/>
<path opacity="0.3" d="M785.31 64.7466L785.71 65.6822L786.612 66.0979L785.71 66.6177L785.31 67.4493L784.809 66.6177L784.008 66.0979L784.809 65.6822L785.31 64.7466Z" fill="#FEA7AF"/>
<path opacity="0.3" d="M837.875 147.909L838.276 148.74L839.177 149.26L838.276 149.78L837.875 150.611L837.375 149.78L836.574 149.26L837.375 148.74L837.875 147.909Z" fill="white"/>
<path opacity="0.3" d="M805.735 31.0669L806.236 31.8985L807.037 32.4183L806.236 32.8341L805.735 33.7696L805.335 32.8341L804.434 32.4183L805.335 31.8985L805.735 31.0669Z" fill="white"/>
<path opacity="0.3" d="M697.7 94.0615L698.601 95.6208L700.103 96.4524L698.601 97.388L697.7 98.9472L696.899 97.388L695.397 96.4524L696.899 95.6208L697.7 94.0615Z" fill="#FEA7AF"/>
<path d="M609.089 180.861L610.191 182.94L612.293 184.187L610.191 185.331L609.089 187.514L607.988 185.331L605.885 184.187L607.988 182.94L609.089 180.861Z" fill="white"/>
<path d="M789.915 181.796L790.316 182.628L791.017 183.043L790.316 183.459L789.915 184.187L789.515 183.459L788.714 183.043L789.515 182.628L789.915 181.796Z" fill="white"/>
<path d="M810.841 97.8032L811.242 98.5309L812.043 98.9467L811.242 99.3625L810.841 100.09L810.441 99.3625L809.74 98.9467L810.441 98.5309L810.841 97.8032Z" fill="white"/>
<path opacity="0.3" d="M527.787 99.6748L528.488 101.13L529.79 101.858L528.488 102.585L527.787 103.937L526.986 102.585L525.685 101.858L526.986 101.13L527.787 99.6748Z" fill="#FEA7AF"/>
<path opacity="0.3" d="M744.458 185.019L744.959 186.058L745.86 186.578L744.959 187.098L744.458 188.137L743.857 187.098L742.956 186.578L743.857 186.058L744.458 185.019Z" fill="#FEA7AF"/>
<path opacity="0.3" d="M768.688 215.165L769.189 216.205L770.19 216.724L769.189 217.244L768.688 218.284L768.188 217.244L767.187 216.724L768.188 216.205L768.688 215.165Z" fill="#FEA7AF"/>
<path opacity="0.3" d="M765.785 104.457L766.286 105.497L767.187 106.016L766.286 106.536L765.785 107.576L765.284 106.536L764.283 106.016L765.284 105.497L765.785 104.457Z" fill="#FEA7AF"/>
<path opacity="0.3" d="M685.685 127.43L686.186 128.366L687.087 128.885L686.186 129.509L685.685 130.445L685.184 129.509L684.183 128.885L685.184 128.366L685.685 127.43Z" fill="#FEA7AF"/>
<path opacity="0.3" d="M895.547 140.735L896.047 141.671L897.049 142.295L896.047 142.814L895.547 143.75L895.046 142.814L894.045 142.295L895.046 141.671L895.547 140.735Z" fill="#FEA7AF"/>
<path d="M517.997 50.4751L518.698 51.862L520.1 52.7155L518.698 53.4623L517.997 54.9558L517.196 53.4623L515.895 52.7155L517.196 51.862L517.997 50.4751Z" fill="#FEA7AF"/>
<path d="M597.697 150.119L598.197 151.079L599.098 151.612L598.197 152.146L597.697 153.106L597.196 152.146L596.295 151.612L597.196 151.079L597.697 150.119Z" fill="#FEA7AF"/>
<path d="M599.099 64.876L599.599 65.8361L600.4 66.3695L599.599 66.7963L599.099 67.7564L598.598 66.7963L597.697 66.3695L598.598 65.8361L599.099 64.876Z" fill="#FEA7AF"/>
<path d="M398.548 191.511L399.049 192.471L399.95 193.005L399.049 193.432L398.548 194.392L398.048 193.432L397.146 193.005L398.048 192.471L398.548 191.511Z" fill="#FEA7AF"/>
<path opacity="0.3" d="M363.104 21.7764L363.605 22.7365L364.506 23.27L363.605 23.8034L363.104 24.7635L362.603 23.8034L361.702 23.27L362.603 22.7365L363.104 21.7764Z" fill="white"/>
<path opacity="0.3" d="M311.038 220.53L311.539 221.49L312.44 222.023L311.539 222.45L311.038 223.41L310.538 222.45L309.637 222.023L310.538 221.49L311.038 220.53Z" fill="white"/>
<path opacity="0.3" d="M317.646 41.2998L318.147 42.26L319.048 42.7934L318.147 43.2201L317.646 44.1803L317.146 43.2201L316.245 42.7934L317.146 42.26L317.646 41.2998Z" fill="white"/>
<path opacity="0.3" d="M429.086 82.2661L429.587 83.1196L430.488 83.653L429.587 84.1864L429.086 85.1466L428.586 84.1864L427.685 83.653L428.586 83.1196L429.086 82.2661Z" fill="white"/>
<path opacity="0.3" d="M474.844 105.844L475.745 107.657L477.547 108.724L475.745 109.791L474.844 111.605L473.842 109.791L472.04 108.724L473.842 107.657L474.844 105.844Z" fill="#FEA7AF"/>
<path opacity="0.3" d="M328.26 3L329.261 4.92032L331.063 5.98717L329.261 6.94732L328.26 8.86764L327.358 6.94732L325.556 5.98717L327.358 4.92032L328.26 3Z" fill="white"/>
<path opacity="0.3" d="M713.943 83.6538L714.844 85.5741L716.646 86.641L714.844 87.6012L713.943 89.5215L712.941 87.6012L711.139 86.641L712.941 85.5741L713.943 83.6538Z" fill="white"/>
<path opacity="0.3" d="M705.932 224.371L706.933 226.291L708.735 227.358L706.933 228.318L705.932 230.238L705.031 228.318L703.229 227.358L705.031 226.291L705.932 224.371Z" fill="white"/>
<path opacity="0.3" d="M333.566 188.631L334.067 189.485L334.868 190.018L334.067 190.445L333.566 191.405L333.166 190.445L332.265 190.018L333.166 189.485L333.566 188.631Z" fill="white"/>
<path opacity="0.3" d="M529.512 177.642L530.013 178.495L530.814 179.028L530.013 179.562L529.512 180.415L529.112 179.562L528.21 179.028L529.112 178.495L529.512 177.642Z" fill="#FEA7AF"/>
<path opacity="0.3" d="M540.325 218.503L540.726 219.356L541.627 219.89L540.726 220.317L540.325 221.277L539.824 220.317L539.023 219.89L539.824 219.356L540.325 218.503Z" fill="#FEA7AF"/>
<path opacity="0.3" d="M639.95 66.3701L640.35 67.3303L641.251 67.757L640.35 68.2904L639.95 69.1439L639.449 68.2904L638.648 67.757L639.449 67.3303L639.95 66.3701Z" fill="#FEA7AF"/>
<path opacity="0.3" d="M692.516 151.719L692.916 152.572L693.817 153.106L692.916 153.639L692.516 154.493L692.015 153.639L691.214 153.106L692.015 152.572L692.516 151.719Z" fill="white"/>
<path opacity="0.3" d="M660.376 31.8047L660.877 32.6582L661.677 33.1916L660.877 33.6183L660.376 34.5785L659.975 33.6183L659.074 33.1916L659.975 32.6582L660.376 31.8047Z" fill="white"/>
<path opacity="0.3" d="M552.34 96.4561L553.242 98.0563L554.743 98.9098L553.242 99.87L552.34 101.47L551.539 99.87L550.038 98.9098L551.539 98.0563L552.34 96.4561Z" fill="#FEA7AF"/>
<path d="M463.73 185.537L464.831 187.671L466.934 188.951L464.831 190.125L463.73 192.365L462.629 190.125L460.526 188.951L462.629 187.671L463.73 185.537Z" fill="white"/>
<path d="M644.555 186.497L644.956 187.351L645.657 187.777L644.956 188.204L644.555 188.951L644.155 188.204L643.354 187.777L644.155 187.351L644.555 186.497Z" fill="white"/>
<path d="M665.482 100.296L665.883 101.043L666.684 101.47L665.883 101.897L665.482 102.643L665.082 101.897L664.381 101.47L665.082 101.043L665.482 100.296Z" fill="white"/>
<path opacity="0.3" d="M382.428 102.216L383.129 103.71L384.43 104.457L383.129 105.203L382.428 106.59L381.627 105.203L380.325 104.457L381.627 103.71L382.428 102.216Z" fill="#FEA7AF"/>
<path opacity="0.3" d="M599.099 189.805L599.6 190.872L600.501 191.405L599.6 191.938L599.099 193.005L598.498 191.938L597.597 191.405L598.498 190.872L599.099 189.805Z" fill="#FEA7AF"/>
<path opacity="0.3" d="M623.33 220.744L623.83 221.81L624.831 222.344L623.83 222.877L623.33 223.944L622.829 222.877L621.828 222.344L622.829 221.81L623.33 220.744Z" fill="#FEA7AF"/>
<path opacity="0.3" d="M620.426 107.125L620.927 108.192L621.828 108.725L620.927 109.259L620.426 110.326L619.926 109.259L618.924 108.725L619.926 108.192L620.426 107.125Z" fill="#FEA7AF"/>
<path opacity="0.3" d="M540.325 130.702L540.826 131.662L541.727 132.196L540.826 132.836L540.325 133.796L539.825 132.836L538.823 132.196L539.825 131.662L540.325 130.702Z" fill="#FEA7AF"/>
<path opacity="0.3" d="M750.188 144.357L750.689 145.318L751.69 145.958L750.689 146.491L750.188 147.451L749.687 146.491L748.686 145.958L749.687 145.318L750.188 144.357Z" fill="#FEA7AF"/>
<path d="M342.769 36.3457L343.47 37.4075L344.871 38.0609L343.47 38.6326L342.769 39.776L341.968 38.6326L340.666 38.0609L341.968 37.4075L342.769 36.3457Z" fill="#FEA7AF"/>
<path d="M422.468 112.63L422.969 113.365L423.87 113.773L422.969 114.182L422.468 114.917L421.968 114.182L421.066 113.773L421.968 113.365L422.468 112.63Z" fill="#FEA7AF"/>
<path d="M423.87 47.3706L424.371 48.1057L425.172 48.514L424.371 48.8407L423.87 49.5758L423.369 48.8407L422.468 48.514L423.369 48.1057L423.87 47.3706Z" fill="#FEA7AF"/>
<path d="M223.32 144.319L223.82 145.054L224.721 145.462L223.82 145.789L223.32 146.524L222.819 145.789L221.918 145.462L222.819 145.054L223.32 144.319Z" fill="#FEA7AF"/>
<path opacity="0.3" d="M187.875 14.375L188.376 15.1101L189.277 15.5185L188.376 15.9268L187.875 16.6619L187.374 15.9268L186.473 15.5185L187.374 15.1101L187.875 14.375Z" fill="white"/>
<path opacity="0.3" d="M135.809 166.534L136.31 167.269L137.211 167.678L136.31 168.004L135.809 168.739L135.309 168.004L134.408 167.678L135.309 167.269L135.809 166.534Z" fill="white"/>
<path opacity="0.3" d="M142.417 29.3213L142.918 30.0564L143.819 30.4647L142.918 30.7914L142.417 31.5265L141.917 30.7914L141.016 30.4647L141.917 30.0564L142.417 29.3213Z" fill="white"/>
<path opacity="0.3" d="M253.857 60.6836L254.357 61.337L255.259 61.7454L254.357 62.1537L253.857 62.8888L253.356 62.1537L252.455 61.7454L253.356 61.337L253.857 60.6836Z" fill="white"/>
<path opacity="0.3" d="M299.615 78.7339L300.516 80.1223L302.318 80.9391L300.516 81.7558L299.615 83.1443L298.614 81.7558L296.812 80.9391L298.614 80.1223L299.615 78.7339Z" fill="#FEA7AF"/>
<path opacity="0.3" d="M153.031 0L154.032 1.47014L155.834 2.28689L154.032 3.02195L153.031 4.49209L152.129 3.02195L150.327 2.28689L152.129 1.47014L153.031 0Z" fill="white"/>
<path opacity="0.3" d="M538.713 61.7461L539.614 63.2162L541.417 64.033L539.614 64.7681L538.713 66.2382L537.712 64.7681L535.91 64.033L537.712 63.2162L538.713 61.7461Z" fill="white"/>
<path opacity="0.3" d="M530.703 169.475L531.704 170.945L533.506 171.762L531.704 172.497L530.703 173.967L529.802 172.497L528 171.762L529.802 170.945L530.703 169.475Z" fill="white"/>
<path opacity="0.3" d="M158.337 142.113L158.838 142.767L159.639 143.175L158.838 143.502L158.337 144.237L157.937 143.502L157.036 143.175L157.937 142.767L158.337 142.113Z" fill="white"/>
<path opacity="0.3" d="M354.283 133.701L354.784 134.354L355.585 134.762L354.784 135.171L354.283 135.824L353.883 135.171L352.981 134.762L353.883 134.354L354.283 133.701Z" fill="#FEA7AF"/>
<path opacity="0.3" d="M365.097 164.982L365.497 165.636L366.398 166.044L365.497 166.371L365.097 167.106L364.596 166.371L363.795 166.044L364.596 165.636L365.097 164.982Z" fill="#FEA7AF"/>
<path opacity="0.3" d="M464.721 48.5142L465.122 49.2492L466.023 49.5759L465.122 49.9843L464.721 50.6377L464.22 49.9843L463.419 49.5759L464.22 49.2492L464.721 48.5142Z" fill="#FEA7AF"/>
<path opacity="0.3" d="M517.287 113.854L517.688 114.508L518.589 114.916L517.688 115.325L517.287 115.978L516.786 115.325L515.985 114.916L516.786 114.508L517.287 113.854Z" fill="white"/>
<path opacity="0.3" d="M485.147 22.0522L485.647 22.7056L486.448 23.114L485.647 23.4407L485.147 24.1758L484.746 23.4407L483.845 23.114L484.746 22.7056L485.147 22.0522Z" fill="white"/>
<path opacity="0.3" d="M377.111 71.5469L378.013 72.772L379.514 73.4254L378.013 74.1605L377.111 75.3856L376.31 74.1605L374.809 73.4254L376.31 72.772L377.111 71.5469Z" fill="#FEA7AF"/>
<path d="M288.501 139.745L289.602 141.379L291.705 142.359L289.602 143.257L288.501 144.972L287.4 143.257L285.297 142.359L287.4 141.379L288.501 139.745Z" fill="white"/>
<path d="M469.327 140.48L469.727 141.133L470.428 141.46L469.727 141.787L469.327 142.359L468.926 141.787L468.125 141.46L468.926 141.133L469.327 140.48Z" fill="white"/>
<path d="M490.253 74.4873L490.654 75.059L491.455 75.3857L490.654 75.7124L490.253 76.2841L489.853 75.7124L489.152 75.3857L489.853 75.059L490.253 74.4873Z" fill="white"/>
<path opacity="0.3" d="M207.199 75.957L207.9 77.1005L209.201 77.6722L207.9 78.2439L207.199 79.3057L206.398 78.2439L205.096 77.6722L206.398 77.1005L207.199 75.957Z" fill="#FEA7AF"/>
<path opacity="0.3" d="M423.87 143.012L424.37 143.829L425.271 144.237L424.37 144.646L423.87 145.462L423.269 144.646L422.368 144.237L423.269 143.829L423.87 143.012Z" fill="#FEA7AF"/>
<path opacity="0.3" d="M448.1 166.698L448.601 167.515L449.602 167.923L448.601 168.332L448.1 169.148L447.599 168.332L446.598 167.923L447.599 167.515L448.1 166.698Z" fill="#FEA7AF"/>
<path opacity="0.3" d="M445.197 79.7148L445.698 80.5316L446.599 80.94L445.698 81.3483L445.197 82.1651L444.697 81.3483L443.695 80.94L444.697 80.5316L445.197 79.7148Z" fill="#FEA7AF"/>
<path opacity="0.3" d="M365.096 97.7646L365.597 98.4997L366.498 98.9081L365.597 99.3981L365.096 100.133L364.596 99.3981L363.594 98.9081L364.596 98.4997L365.096 97.7646Z" fill="#FEA7AF"/>
<path opacity="0.3" d="M574.958 108.219L575.459 108.954L576.46 109.444L575.459 109.852L574.958 110.587L574.458 109.852L573.457 109.444L574.458 108.954L574.958 108.219Z" fill="#FEA7AF"/>
<path d="M273.076 51.0479L273.777 52.4453L275.179 53.3053L273.777 54.0577L273.076 55.5627L272.275 54.0577L270.974 53.3053L272.275 52.4453L273.076 51.0479Z" fill="#FEA7AF"/>
<path d="M352.775 151.449L353.275 152.417L354.176 152.954L353.275 153.492L352.775 154.459L352.274 153.492L351.373 152.954L352.274 152.417L352.775 151.449Z" fill="#FEA7AF"/>
<path d="M354.177 65.5581L354.678 66.5256L355.479 67.063L354.678 67.493L354.177 68.4605L353.677 67.493L352.775 67.063L353.677 66.5256L354.177 65.5581Z" fill="#FEA7AF"/>
<path d="M153.626 193.157L154.127 194.124L155.028 194.662L154.127 195.092L153.626 196.059L153.126 195.092L152.225 194.662L153.126 194.124L153.626 193.157Z" fill="#FEA7AF"/>
<path opacity="0.3" d="M118.182 22.1304L118.683 23.0978L119.584 23.6353L118.683 24.1728L118.182 25.1403L117.681 24.1728L116.78 23.6353L117.681 23.0978L118.182 22.1304Z" fill="white"/>
<path opacity="0.3" d="M66.1171 222.396L66.6177 223.363L67.5188 223.901L66.6177 224.331L66.1171 225.298L65.6165 224.331L64.7153 223.901L65.6165 223.363L66.1171 222.396Z" fill="white"/>
<path opacity="0.3" d="M72.725 41.8027L73.2256 42.7702L74.1267 43.3077L73.2256 43.7377L72.725 44.7051L72.2244 43.7377L71.3232 43.3077L72.2244 42.7702L72.725 41.8027Z" fill="white"/>
<path opacity="0.3" d="M184.164 83.0806L184.665 83.9405L185.566 84.478L184.665 85.0155L184.164 85.983L183.664 85.0155L182.763 84.478L183.664 83.9405L184.164 83.0806Z" fill="white"/>
<path opacity="0.3" d="M229.923 106.837L230.824 108.665L232.626 109.74L230.824 110.815L229.923 112.642L228.921 110.815L227.119 109.74L228.921 108.665L229.923 106.837Z" fill="#FEA7AF"/>
<path opacity="0.3" d="M83.3381 3.21143L84.3394 5.14636L86.1416 6.22132L84.3394 7.18877L83.3381 9.1237L82.437 7.18877L80.6348 6.22132L82.437 5.14636L83.3381 3.21143Z" fill="white"/>
<path opacity="0.3" d="M469.021 84.4785L469.922 86.4134L471.724 87.4884L469.922 88.4559L469.021 90.3908L468.02 88.4559L466.217 87.4884L468.02 86.4134L469.021 84.4785Z" fill="white"/>
<path opacity="0.3" d="M461.011 226.266L462.012 228.201L463.814 229.276L462.012 230.243L461.011 232.178L460.109 230.243L458.307 229.276L460.109 228.201L461.011 226.266Z" fill="white"/>
<path opacity="0.3" d="M88.6449 190.254L89.1455 191.114L89.9465 191.652L89.1455 192.082L88.6449 193.049L88.2444 192.082L87.3433 191.652L88.2444 191.114L88.6449 190.254Z" fill="white"/>
<path opacity="0.3" d="M284.591 179.182L285.091 180.042L285.892 180.579L285.091 181.117L284.591 181.977L284.19 181.117L283.289 180.579L284.19 180.042L284.591 179.182Z" fill="#FEA7AF"/>
<path opacity="0.3" d="M295.404 220.354L295.805 221.214L296.706 221.751L295.805 222.181L295.404 223.148L294.904 222.181L294.103 221.751L294.904 221.214L295.404 220.354Z" fill="#FEA7AF"/>
<path opacity="0.3" d="M395.028 67.0635L395.429 68.0309L396.33 68.4609L395.429 68.9984L395.028 69.8584L394.528 68.9984L393.727 68.4609L394.528 68.0309L395.028 67.0635Z" fill="#FEA7AF"/>
<path opacity="0.3" d="M447.595 153.062L447.995 153.921L448.896 154.459L447.995 154.996L447.595 155.856L447.094 154.996L446.293 154.459L447.094 153.921L447.595 153.062Z" fill="white"/>
<path opacity="0.3" d="M415.454 32.2354L415.955 33.0953L416.756 33.6328L415.955 34.0628L415.454 35.0302L415.054 34.0628L414.153 33.6328L415.054 33.0953L415.454 32.2354Z" fill="white"/>
<path opacity="0.3" d="M307.419 97.3779L308.32 98.9904L309.822 99.8503L308.32 100.818L307.419 102.43L306.618 100.818L305.116 99.8503L306.618 98.9904L307.419 97.3779Z" fill="#FEA7AF"/>
<path d="M218.809 187.137L219.91 189.287L222.013 190.577L219.91 191.76L218.809 194.017L217.708 191.76L215.605 190.577L217.708 189.287L218.809 187.137Z" fill="white"/>
<path d="M399.634 188.104L400.035 188.964L400.735 189.394L400.035 189.824L399.634 190.577L399.234 189.824L398.433 189.394L399.234 188.964L399.634 188.104Z" fill="white"/>
<path d="M420.561 101.248L420.961 102.001L421.762 102.431L420.961 102.86L420.561 103.613L420.16 102.86L419.459 102.431L420.16 102.001L420.561 101.248Z" fill="white"/>
<path opacity="0.3" d="M137.506 103.183L138.207 104.688L139.508 105.44L138.207 106.193L137.506 107.59L136.705 106.193L135.403 105.44L136.705 104.688L137.506 103.183Z" fill="#FEA7AF"/>
<path opacity="0.3" d="M354.178 191.437L354.678 192.512L355.579 193.049L354.678 193.587L354.178 194.662L353.577 193.587L352.676 193.049L353.577 192.512L354.178 191.437Z" fill="#FEA7AF"/>
<path opacity="0.3" d="M378.408 222.611L378.908 223.686L379.909 224.223L378.908 224.761L378.408 225.836L377.907 224.761L376.906 224.223L377.907 223.686L378.408 222.611Z" fill="#FEA7AF"/>
<path opacity="0.3" d="M375.504 108.128L376.005 109.203L376.906 109.741L376.005 110.278L375.504 111.353L375.004 110.278L374.002 109.741L375.004 109.203L375.504 108.128Z" fill="#FEA7AF"/>
<path opacity="0.3" d="M295.404 131.885L295.904 132.852L296.806 133.39L295.904 134.035L295.404 135.002L294.903 134.035L293.902 133.39L294.903 132.852L295.404 131.885Z" fill="#FEA7AF"/>
<path opacity="0.3" d="M505.266 145.645L505.766 146.612L506.767 147.257L505.766 147.794L505.266 148.762L504.765 147.794L503.764 147.257L504.765 146.612L505.266 145.645Z" fill="#FEA7AF"/>
<path d="M188.619 51.0479L189.233 52.4453L190.46 53.3053L189.233 54.0577L188.619 55.5627L187.918 54.0577L186.778 53.3053L187.918 52.4453L188.619 51.0479Z" fill="#FEA7AF"/>
<path d="M258.414 151.449L258.852 152.417L259.641 152.954L258.852 153.492L258.414 154.459L257.975 153.492L257.186 152.954L257.975 152.417L258.414 151.449Z" fill="#FEA7AF"/>
<path d="M259.641 65.5581L260.08 66.5256L260.781 67.063L260.08 67.493L259.641 68.4605L259.203 67.493L258.414 67.063L259.203 66.5256L259.641 65.5581Z" fill="#FEA7AF"/>
<path d="M84.0151 193.157L84.4535 194.124L85.2427 194.662L84.4535 195.092L84.0151 196.059L83.5767 195.092L82.7876 194.662L83.5767 194.124L84.0151 193.157Z" fill="#FEA7AF"/>
<path opacity="0.3" d="M52.9761 22.1304L53.4145 23.0978L54.2036 23.6353L53.4145 24.1728L52.9761 25.1403L52.5377 24.1728L51.7485 23.6353L52.5377 23.0978L52.9761 22.1304Z" fill="white"/>
<path opacity="0.3" d="M7.38135 222.396L7.81976 223.363L8.60889 223.901L7.81976 224.331L7.38135 225.298L6.94294 224.331L6.15381 223.901L6.94294 223.363L7.38135 222.396Z" fill="white"/>
<path opacity="0.3" d="M13.168 41.8027L13.6064 42.7702L14.3955 43.3077L13.6064 43.7377L13.168 44.7051L12.7296 43.7377L11.9404 43.3077L12.7296 42.7702L13.168 41.8027Z" fill="white"/>
<path opacity="0.3" d="M110.758 83.0806L111.196 83.9405L111.985 84.478L111.196 85.0155L110.758 85.983L110.319 85.0155L109.53 84.478L110.319 83.9405L110.758 83.0806Z" fill="white"/>
<path opacity="0.3" d="M150.829 106.837L151.618 108.665L153.196 109.74L151.618 110.815L150.829 112.642L149.952 110.815L148.374 109.74L149.952 108.665L150.829 106.837Z" fill="#FEA7AF"/>
<path opacity="0.3" d="M22.4631 3.21143L23.3399 5.14636L24.9182 6.22132L23.3399 7.18877L22.4631 9.1237L21.674 7.18877L20.0957 6.22132L21.674 5.14636L22.4631 3.21143Z" fill="white"/>
<path opacity="0.3" d="M360.211 84.4785L361.001 86.4134L362.579 87.4884L361.001 88.4559L360.211 90.3908L359.335 88.4559L357.756 87.4884L359.335 86.4134L360.211 84.4785Z" fill="white"/>
<path opacity="0.3" d="M353.197 226.266L354.074 228.201L355.652 229.276L354.074 230.243L353.197 232.178L352.408 230.243L350.83 229.276L352.408 228.201L353.197 226.266Z" fill="white"/>
<path opacity="0.3" d="M27.1096 190.254L27.548 191.114L28.2494 191.652L27.548 192.082L27.1096 193.049L26.7589 192.082L25.9697 191.652L26.7589 191.114L27.1096 190.254Z" fill="white"/>
<path opacity="0.3" d="M198.702 179.182L199.141 180.042L199.842 180.579L199.141 181.117L198.702 181.977L198.352 181.117L197.562 180.579L198.352 180.042L198.702 179.182Z" fill="#FEA7AF"/>
<path opacity="0.3" d="M208.173 220.354L208.524 221.214L209.313 221.751L208.524 222.181L208.173 223.148L207.735 222.181L207.033 221.751L207.735 221.214L208.173 220.354Z" fill="#FEA7AF"/>
<path opacity="0.3" d="M295.415 67.0635L295.766 68.0309L296.555 68.4609L295.766 68.9984L295.415 69.8584L294.977 68.9984L294.275 68.4609L294.977 68.0309L295.415 67.0635Z" fill="#FEA7AF"/>
<path opacity="0.3" d="M341.448 153.062L341.799 153.921L342.588 154.459L341.799 154.996L341.448 155.856L341.01 154.996L340.308 154.459L341.01 153.921L341.448 153.062Z" fill="white"/>
<path opacity="0.3" d="M313.302 32.2354L313.74 33.0953L314.442 33.6328L313.74 34.0628L313.302 35.0302L312.951 34.0628L312.162 33.6328L312.951 33.0953L313.302 32.2354Z" fill="white"/>
<path opacity="0.3" d="M218.694 97.3779L219.484 98.9904L220.799 99.8503L219.484 100.818L218.694 102.43L217.993 100.818L216.678 99.8503L217.993 98.9904L218.694 97.3779Z" fill="#FEA7AF"/>
<path d="M141.096 187.137L142.061 189.287L143.902 190.577L142.061 191.76L141.096 194.017L140.132 191.76L138.291 190.577L140.132 189.287L141.096 187.137Z" fill="white"/>
<path d="M299.449 188.104L299.8 188.964L300.414 189.394L299.8 189.824L299.449 190.577L299.098 189.824L298.397 189.394L299.098 188.964L299.449 188.104Z" fill="white"/>
<path d="M317.774 101.248L318.124 102.001L318.826 102.431L318.124 102.86L317.774 103.613L317.423 102.86L316.809 102.431L317.423 102.001L317.774 101.248Z" fill="white"/>
<path opacity="0.3" d="M69.8989 103.183L70.5127 104.688L71.6526 105.44L70.5127 106.193L69.8989 107.59L69.1975 106.193L68.0576 105.44L69.1975 104.688L69.8989 103.183Z" fill="#FEA7AF"/>
<path opacity="0.3" d="M259.641 191.437L260.08 192.512L260.869 193.049L260.08 193.587L259.641 194.662L259.115 193.587L258.326 193.049L259.115 192.512L259.641 191.437Z" fill="#FEA7AF"/>
<path opacity="0.3" d="M280.86 222.611L281.299 223.686L282.175 224.223L281.299 224.761L280.86 225.836L280.422 224.761L279.545 224.223L280.422 223.686L280.86 222.611Z" fill="#FEA7AF"/>
<path opacity="0.3" d="M278.317 108.128L278.756 109.203L279.545 109.741L278.756 110.278L278.317 111.353L277.879 110.278L277.002 109.741L277.879 109.203L278.317 108.128Z" fill="#FEA7AF"/>
<path opacity="0.3" d="M208.172 131.885L208.611 132.852L209.4 133.39L208.611 134.035L208.172 135.002L207.734 134.035L206.857 133.39L207.734 132.852L208.172 131.885Z" fill="#FEA7AF"/>
<path opacity="0.3" d="M391.952 145.645L392.39 146.612L393.267 147.257L392.39 147.794L391.952 148.762L391.514 147.794L390.637 147.257L391.514 146.612L391.952 145.645Z" fill="#FEA7AF"/>
<path d="M1128.31 49.5483L1129.01 50.902L1130.41 51.735L1129.01 52.4639L1128.31 53.9216L1127.51 52.4639L1126.21 51.735L1127.51 50.902L1128.31 49.5483Z" fill="#FEA7AF"/>
<path d="M1208.01 146.802L1208.51 147.739L1209.41 148.26L1208.51 148.78L1208.01 149.717L1207.51 148.78L1206.61 148.26L1207.51 147.739L1208.01 146.802Z" fill="#FEA7AF"/>
<path d="M1209.41 63.6035L1209.91 64.5406L1210.71 65.0613L1209.91 65.4778L1209.41 66.4149L1208.91 65.4778L1208.01 65.0613L1208.91 64.5406L1209.41 63.6035Z" fill="#FEA7AF"/>
<path d="M1008.86 187.202L1009.36 188.139L1010.26 188.659L1009.36 189.076L1008.86 190.013L1008.36 189.076L1007.46 188.659L1008.36 188.139L1008.86 187.202Z" fill="#FEA7AF"/>
<path opacity="0.3" d="M973.414 21.5376L973.915 22.4747L974.816 22.9954L973.915 23.516L973.414 24.4531L972.914 23.516L972.013 22.9954L972.914 22.4747L973.414 21.5376Z" fill="white"/>
<path opacity="0.3" d="M921.349 215.524L921.85 216.462L922.751 216.982L921.85 217.399L921.349 218.336L920.848 217.399L919.947 216.982L920.848 216.462L921.349 215.524Z" fill="white"/>
<path opacity="0.3" d="M927.957 40.5928L928.458 41.5299L929.359 42.0505L928.458 42.467L927.957 43.4042L927.456 42.467L926.555 42.0505L927.456 41.5299L927.957 40.5928Z" fill="white"/>
<path opacity="0.3" d="M1039.4 80.5767L1039.9 81.4097L1040.8 81.9303L1039.9 82.4509L1039.4 83.3881L1038.9 82.4509L1038 81.9303L1038.9 81.4097L1039.4 80.5767Z" fill="white"/>
<path opacity="0.3" d="M1085.15 103.588L1086.06 105.359L1087.86 106.4L1086.06 107.441L1085.15 109.211L1084.15 107.441L1082.35 106.4L1084.15 105.359L1085.15 103.588Z" fill="#FEA7AF"/>
<path opacity="0.3" d="M938.57 3.21143L939.571 5.08569L941.374 6.12695L939.571 7.06408L938.57 8.93835L937.669 7.06408L935.867 6.12695L937.669 5.08569L938.57 3.21143Z" fill="white"/>
<path opacity="0.3" d="M1324.25 81.9307L1325.15 83.8049L1326.96 84.8462L1325.15 85.7833L1324.25 87.6576L1323.25 85.7833L1321.45 84.8462L1323.25 83.8049L1324.25 81.9307Z" fill="white"/>
<path opacity="0.3" d="M1316.24 219.273L1317.24 221.147L1319.05 222.188L1317.24 223.126L1316.24 225L1315.34 223.126L1313.54 222.188L1315.34 221.147L1316.24 219.273Z" fill="white"/>
<path opacity="0.3" d="M943.877 184.391L944.377 185.224L945.178 185.744L944.377 186.161L943.877 187.098L943.476 186.161L942.575 185.744L943.476 185.224L943.877 184.391Z" fill="white"/>
<path opacity="0.3" d="M1139.82 173.665L1140.32 174.498L1141.12 175.018L1140.32 175.539L1139.82 176.372L1139.42 175.539L1138.52 175.018L1139.42 174.498L1139.82 173.665Z" fill="#FEA7AF"/>
<path opacity="0.3" d="M1150.64 213.546L1151.04 214.379L1151.94 214.9L1151.04 215.316L1150.64 216.253L1150.13 215.316L1149.33 214.9L1150.13 214.379L1150.64 213.546Z" fill="#FEA7AF"/>
<path opacity="0.3" d="M1250.26 65.0615L1250.66 65.9987L1251.56 66.4152L1250.66 66.9358L1250.26 67.7688L1249.76 66.9358L1248.96 66.4152L1249.76 65.9987L1250.26 65.0615Z" fill="#FEA7AF"/>
<path opacity="0.3" d="M1302.83 148.364L1303.23 149.197L1304.13 149.717L1303.23 150.238L1302.83 151.071L1302.33 150.238L1301.52 149.717L1302.33 149.197L1302.83 148.364Z" fill="white"/>
<path opacity="0.3" d="M1270.69 31.3252L1271.19 32.1582L1271.99 32.6788L1271.19 33.0953L1270.69 34.0325L1270.29 33.0953L1269.38 32.6788L1270.29 32.1582L1270.69 31.3252Z" fill="white"/>
<path opacity="0.3" d="M1162.65 94.4258L1163.55 95.9877L1165.05 96.8207L1163.55 97.7578L1162.65 99.3197L1161.85 97.7578L1160.35 96.8207L1161.85 95.9877L1162.65 94.4258Z" fill="#FEA7AF"/>
<path d="M1074.04 181.371L1075.14 183.454L1077.24 184.703L1075.14 185.849L1074.04 188.035L1072.94 185.849L1070.84 184.703L1072.94 183.454L1074.04 181.371Z" fill="white"/>
<path d="M1254.87 182.308L1255.27 183.141L1255.97 183.558L1255.27 183.974L1254.87 184.703L1254.47 183.974L1253.66 183.558L1254.47 183.141L1254.87 182.308Z" fill="white"/>
<path d="M1275.79 98.1743L1276.19 98.9032L1276.99 99.3197L1276.19 99.7362L1275.79 100.465L1275.39 99.7362L1274.69 99.3197L1275.39 98.9032L1275.79 98.1743Z" fill="white"/>
<path opacity="0.3" d="M992.738 100.048L993.439 101.506L994.741 102.235L993.439 102.964L992.738 104.317L991.937 102.964L990.636 102.235L991.937 101.506L992.738 100.048Z" fill="#FEA7AF"/>
<path opacity="0.3" d="M1209.41 185.536L1209.91 186.577L1210.81 187.098L1209.91 187.619L1209.41 188.66L1208.81 187.619L1207.91 187.098L1208.81 186.577L1209.41 185.536Z" fill="#FEA7AF"/>
<path opacity="0.3" d="M1233.64 215.733L1234.14 216.774L1235.14 217.295L1234.14 217.815L1233.64 218.857L1233.14 217.815L1232.14 217.295L1233.14 216.774L1233.64 215.733Z" fill="#FEA7AF"/>
<path opacity="0.3" d="M1230.74 104.839L1231.24 105.881L1232.14 106.401L1231.24 106.922L1230.74 107.963L1230.24 106.922L1229.23 106.401L1230.24 105.881L1230.74 104.839Z" fill="#FEA7AF"/>
<path opacity="0.3" d="M1150.64 127.851L1151.14 128.788L1152.04 129.308L1151.14 129.933L1150.64 130.87L1150.14 129.933L1149.13 129.308L1150.14 128.788L1150.64 127.851Z" fill="#FEA7AF"/>
<path opacity="0.3" d="M1360.5 141.179L1361 142.116L1362 142.741L1361 143.262L1360.5 144.199L1360 143.262L1359 142.741L1360 142.116L1360.5 141.179Z" fill="#FEA7AF"/>
<path d="M1006.84 54.9893L1007.54 56.3318L1008.95 57.1579L1007.54 57.8808L1006.84 59.3266L1006.04 57.8808L1004.74 57.1579L1006.04 56.3318L1006.84 54.9893Z" fill="#FEA7AF"/>
<path d="M1086.54 151.444L1087.04 152.374L1087.94 152.89L1087.04 153.406L1086.54 154.336L1086.04 153.406L1085.14 152.89L1086.04 152.374L1086.54 151.444Z" fill="#FEA7AF"/>
<path d="M1087.94 68.9292L1088.44 69.8586L1089.25 70.375L1088.44 70.7881L1087.94 71.7175L1087.44 70.7881L1086.54 70.375L1087.44 69.8586L1087.94 68.9292Z" fill="#FEA7AF"/>
<path d="M887.394 191.512L887.895 192.442L888.796 192.958L887.895 193.371L887.394 194.301L886.894 193.371L885.993 192.958L886.894 192.442L887.394 191.512Z" fill="#FEA7AF"/>
<path opacity="0.3" d="M851.95 27.209L852.45 28.1384L853.351 28.6548L852.45 29.1711L851.95 30.1006L851.449 29.1711L850.548 28.6548L851.449 28.1384L851.95 27.209Z" fill="white"/>
<path opacity="0.3" d="M799.884 219.602L800.385 220.531L801.286 221.048L800.385 221.461L799.884 222.39L799.384 221.461L798.482 221.048L799.384 220.531L799.884 219.602Z" fill="white"/>
<path opacity="0.3" d="M806.493 46.1074L806.993 47.0369L807.894 47.5532L806.993 47.9663L806.493 48.8957L805.992 47.9663L805.091 47.5532L805.992 47.0369L806.493 46.1074Z" fill="white"/>
<path opacity="0.3" d="M917.932 85.7627L918.432 86.5888L919.333 87.1052L918.432 87.6216L917.932 88.551L917.431 87.6216L916.53 87.1052L917.431 86.5888L917.932 85.7627Z" fill="white"/>
<path opacity="0.3" d="M963.688 108.586L964.589 110.342L966.392 111.374L964.589 112.407L963.688 114.163L962.687 112.407L960.885 111.374L962.687 110.342L963.688 108.586Z" fill="#FEA7AF"/>
<path opacity="0.3" d="M817.106 9.0332L818.107 10.8921L819.909 11.9248L818.107 12.8542L817.106 14.7131L816.205 12.8542L814.402 11.9248L816.205 10.8921L817.106 9.0332Z" fill="white"/>
<path opacity="0.3" d="M1202.79 87.106L1203.69 88.9648L1205.49 89.9975L1203.69 90.927L1202.79 92.7858L1201.79 90.927L1199.98 89.9975L1201.79 88.9648L1202.79 87.106Z" fill="white"/>
<path opacity="0.3" d="M1194.78 223.32L1195.78 225.179L1197.58 226.212L1195.78 227.141L1194.78 229L1193.88 227.141L1192.07 226.212L1193.88 225.179L1194.78 223.32Z" fill="white"/>
<path opacity="0.3" d="M822.411 188.725L822.912 189.551L823.713 190.067L822.912 190.48L822.411 191.41L822.011 190.48L821.11 190.067L822.011 189.551L822.411 188.725Z" fill="white"/>
<path opacity="0.3" d="M1018.36 178.086L1018.86 178.913L1019.66 179.429L1018.86 179.945L1018.36 180.771L1017.96 179.945L1017.06 179.429L1017.96 178.913L1018.36 178.086Z" fill="#FEA7AF"/>
<path opacity="0.3" d="M1029.17 217.64L1029.57 218.466L1030.47 218.983L1029.57 219.396L1029.17 220.325L1028.67 219.396L1027.87 218.983L1028.67 218.466L1029.17 217.64Z" fill="#FEA7AF"/>
<path opacity="0.3" d="M1128.8 70.3755L1129.2 71.3049L1130.1 71.718L1129.2 72.2344L1128.8 73.0605L1128.3 72.2344L1127.49 71.718L1128.3 71.3049L1128.8 70.3755Z" fill="#FEA7AF"/>
<path opacity="0.3" d="M1181.36 152.993L1181.76 153.819L1182.66 154.336L1181.76 154.852L1181.36 155.678L1180.86 154.852L1180.06 154.336L1180.86 153.819L1181.36 152.993Z" fill="white"/>
<path opacity="0.3" d="M1149.22 36.9165L1149.72 37.7427L1150.52 38.259L1149.72 38.6721L1149.22 39.6015L1148.82 38.6721L1147.92 38.259L1148.82 37.7427L1149.22 36.9165Z" fill="white"/>
<path opacity="0.3" d="M1041.19 99.498L1042.09 101.047L1043.59 101.873L1042.09 102.803L1041.19 104.352L1040.39 102.803L1038.88 101.873L1040.39 101.047L1041.19 99.498Z" fill="#FEA7AF"/>
<path d="M952.576 185.729L953.677 187.795L955.78 189.034L953.677 190.17L952.576 192.339L951.474 190.17L949.372 189.034L951.474 187.795L952.576 185.729Z" fill="white"/>
<path d="M1133.4 186.659L1133.8 187.485L1134.5 187.898L1133.8 188.311L1133.4 189.034L1133 188.311L1132.2 187.898L1133 187.485L1133.4 186.659Z" fill="white"/>
<path d="M1154.33 103.216L1154.73 103.939L1155.53 104.352L1154.73 104.765L1154.33 105.488L1153.93 104.765L1153.23 104.352L1153.93 103.939L1154.33 103.216Z" fill="white"/>
<path opacity="0.3" d="M871.274 105.075L871.974 106.52L873.276 107.243L871.974 107.966L871.274 109.309L870.473 107.966L869.171 107.243L870.473 106.52L871.274 105.075Z" fill="#FEA7AF"/>
<path opacity="0.3" d="M1087.94 189.86L1088.44 190.893L1089.35 191.409L1088.44 191.925L1087.94 192.958L1087.34 191.925L1086.44 191.409L1087.34 190.893L1087.94 189.86Z" fill="#FEA7AF"/>
<path opacity="0.3" d="M1112.17 219.809L1112.68 220.842L1113.68 221.358L1112.68 221.874L1112.17 222.907L1111.67 221.874L1110.67 221.358L1111.67 220.842L1112.17 219.809Z" fill="#FEA7AF"/>
<path opacity="0.3" d="M1109.27 109.826L1109.77 110.858L1110.67 111.375L1109.77 111.891L1109.27 112.924L1108.77 111.891L1107.77 111.375L1108.77 110.858L1109.27 109.826Z" fill="#FEA7AF"/>
<path opacity="0.3" d="M1029.17 132.649L1029.67 133.578L1030.57 134.095L1029.67 134.714L1029.17 135.644L1028.67 134.714L1027.67 134.095L1028.67 133.578L1029.17 132.649Z" fill="#FEA7AF"/>
<path opacity="0.3" d="M1239.03 145.867L1239.53 146.797L1240.54 147.416L1239.53 147.933L1239.03 148.862L1238.53 147.933L1237.53 147.416L1238.53 146.797L1239.03 145.867Z" fill="#FEA7AF"/>
<path d="M104.54 86.9214C104.54 91.3841 64.7772 67.9193 103.063 99.7335C98.2619 119.167 82.8737 133.419 64.7772 133.419C44.3417 133.419 64.7772 99.7335 25.2604 92.6797C25.0142 90.7603 24.8911 88.8408 24.8911 86.9214C24.8911 79.2918 26.4915 72.238 29.1998 65.904C35.7244 50.6447 64.7772 67.9191 76.7914 54.896C93.0413 54.896 94.938 51.6524 101.093 67.9194C103.309 73.8215 104.54 80.1555 104.54 86.9214Z" fill="url(#paint0_linear_76_1406)"/>
<path d="M1324.17 139.632C1324.17 146.279 1323.56 152.712 1322.36 158.716C1316.48 187.665 1297.62 208.894 1275.46 208.894C1250.42 208.894 1229.91 182.519 1227.05 148.209C1226.75 145.35 1226.6 142.491 1226.6 139.632C1308.53 190.46 1228.56 117.76 1231.87 108.325C1239.87 85.5946 1256.46 70.1554 1275.46 70.1554C1295.36 70.1554 1330.07 13.9081 1337.61 38.139C1340.32 46.9308 1324.17 129.554 1324.17 139.632Z" fill="url(#paint1_linear_76_1406)"/>
<path d="M691.123 77.8732C696.868 82.0463 702.047 86.5825 706.475 91.3472C727.782 114.373 734.232 143.255 720.239 161.548C704.439 182.205 668.698 182.571 637.237 163.397C634.575 161.852 632.009 160.181 629.538 158.386C619.715 151.252 611.872 143.038 605.811 134.377C591.211 113.513 588.338 90.1318 600.331 74.4523C612.896 58.0262 638.293 54.599 663.994 63.5884C673.306 66.8677 682.412 71.5463 691.123 77.8732V77.8732Z" fill="url(#paint2_linear_76_1406)"/>
<defs>
<linearGradient id="paint0_linear_76_1406" x1="8754.07" y1="13251" x2="13907.4" y2="13251" gradientUnits="userSpaceOnUse">
<stop stop-color="#FFA7B5"/>
<stop offset="1" stop-color="#E852A8"/>
</linearGradient>
<linearGradient id="paint1_linear_76_1406" x1="11920.3" y1="19757.1" x2="18233.1" y2="19757.1" gradientUnits="userSpaceOnUse">
<stop stop-color="#FFA7B5"/>
<stop offset="1" stop-color="#E852A8"/>
</linearGradient>
<linearGradient id="paint2_linear_76_1406" x1="24334.2" y1="3649.45" x2="28187.2" y2="-1655.24" gradientUnits="userSpaceOnUse">
<stop stop-color="#FFA7B5" stop-opacity="0.7"/>
<stop offset="1" stop-color="#E852A8"/>
</linearGradient>
</defs>
</svg>
